<svg width="41" height="40" viewBox="0 0 41 40" fill="none" xmlns="http://www.w3.org/2000/svg">
<rect x="0.666626" width="40" height="40" rx="20" fill="#0077FF"/>
<path d="M21.6491 27C14.1326 27 9.84526 21.7447 9.66663 13H13.4318C13.5554 19.4184 16.3312 22.1371 18.5298 22.6977V13H22.0751V18.5355C24.2463 18.2973 26.5273 15.7748 27.2969 13H30.8421C30.5522 14.4391 29.9741 15.8017 29.1442 17.0025C28.3143 18.2033 27.2504 19.2166 26.0189 19.979C27.3935 20.6756 28.6076 21.6615 29.5811 22.8717C30.5547 24.082 31.2655 25.489 31.6666 27H27.7641C27.4039 25.6876 26.672 24.5128 25.66 23.6228C24.648 22.7328 23.401 22.1673 22.0751 21.997V27H21.6491Z" fill="white"/>
</svg>
